<svg xmlns="http://www.w3.org/2000/svg" xmlns:xlink="http://www.w3.org/1999/xlink" viewBox="0 0 553 75" width="553" height="75" preserveAspectRatio="xMidYMid meet">
  <g id="svg-logo-PayPal">
    <g id="svg-logo-Pay" fill="#003087">
      <path id="svg-logo-P" d="M33.8,0H11.9c-1.5,0-2.8,1.1-3,2.6L0,58.7c-0.2,1.1,0.7,2.1,1.8,2.1h10.5c1.5,0,2.8-1.1,3-2.6l2.4-15.1 c0.2-1.5,1.5-2.6,3-2.6h6.9c14.4,0,22.7-7,24.9-20.8C54.6,7.2,48.3,0,33.8,0z M36.3,20.5c-1.2,7.9-7.2,7.9-13,7.9H20l2.3-14.7 c0.1-0.9,0.9-1.5,1.8-1.5h1.5C31.7,12.1,37.6,12.2,36.3,20.5z"/>
      <path id="svg-logo-a" d="M99.2,20.3H88.7c-0.9,0-1.7,0.7-1.8,1.5l-0.5,2.9l-0.7-1.1c-2.3-3.3-7.3-4.4-12.4-4.4 C61.8,19.3,51.9,28,50,40.4c-1.6,9.5,2.7,21.4,17.1,21.4c9.3,0,14.5-6,14.5-6l-0.5,2.9c-0.2,1.1,0.7,2.1,1.8,2.1h9.4 c1.5,0,2.8-1.1,3-2.6l5.7-35.9C101.2,21.3,100.3,20.3,99.2,20.3z M84.6,40.7c-1,6-5.8,10-11.8,10c-6.4,0-9.7-4.4-8.7-10.2 c0.9-5.9,5.8-10.1,11.7-10.1C82,30.4,85.5,34.8,84.6,40.7z"/>
      <path id="svg-logo-y" d="M155.1,20.3h-10.5c-1,0-2,0.5-2.5,1.3L127.5,43l-6.2-20.6c-0.4-1.3-1.6-2.2-2.9-2.2H108 c-1.3,0-2.1,1.2-1.7,2.4l11.6,34.1L107,72.1c-0.9,1.2,0,2.9,1.5,2.9H119c1,0,1.9-0.5,2.5-1.3l35-50.6 C157.4,21.9,156.5,20.3,155.1,20.3z"/>
    </g>
    <g id="svg-logo-Pal" fill="#009cde">
      <use xlink:href="#svg-logo-P" x="156"/>
      <use xlink:href="#svg-logo-a" x="156"/>
      <path id="svg-logo-l" d="M267.7,1.5l-9,57.2c-0.2,1.1,0.7,2.1,1.8,2.1h9c1.5,0,2.8-1.1,3-2.6l8.9-56.1c0.2-1.1-0.7-2.1-1.8-2.1h-10.1 C268.6,0,267.9,0.7,267.7,1.5z"/>
    </g>
  </g>
  <g id="svg-logo-Developer" fill="#999">
    <path id="svg-dev-D" d="M338,37.5c0,12.7-9.5,23.3-24.1,23.3h-13.5l6.4-40.5h12.8C332.2,20.3,338,28.3,338,37.5z M332.2,37.9 c0-8.7-5.8-12.9-13.4-12.9h-7.1l-4.9,31h7.5C325.2,56,332.2,47.8,332.2,37.9z"/>
    <path id="svg-dev-e" d="M368.8,42.7c0,1.1-0.1,2.1-0.2,2.8c-0.1,0.7-0.3,1.6-0.6,2.6H346c-0.2,5.6,3.1,9.2,9,9.2 c4.2,0,7.3-1.2,10.1-2.9l-0.7,4.4c-3,2-6.6,3.1-10.7,3.1c-7.8,0-13.1-5.2-13.1-13.4c0-6.8,5-17.3,17-17.3 C364.5,31.2,368.8,35.5,368.8,42.7z M346.7,43.9h17c0.4-3.4-0.7-8.3-6.7-8.3C351.3,35.6,347.8,40.2,346.7,43.9z"/>
    <path id="svg-dev-v" d="M382.9,60.8H378l-6.8-28.7h5.2l4.9,22.4l11.9-22.4h5.5L382.9,60.8z"/>
    <use xlink:href="#svg-dev-e" x="56"/>
    <path id="svg-dev-l" d="M431.4,60.8h-5.2l6.3-40.5h5.3L431.4,60.8z"/>
    <path id="svg-dev-o" d="M467.6,44.5c0,9.3-7.5,17.3-17.2,17.3c-7.3,0-13-5.2-13-13.3c0-9,7-17.3,17.2-17.3 C461.9,31.2,467.6,36.4,467.6,44.5z M442.7,48.2c0,5.4,3.5,8.9,7.9,8.9c7,0,11.6-6.2,11.6-12.5c0-5.7-3.9-8.7-7.9-8.7 C447,35.9,442.7,42.2,442.7,48.2z"/>
    <path id="svg-dev-p" d="M478.7,32.1l-0.7,4.4c2.6-3.5,6.6-5.3,11.1-5.3c7,0,11.9,5.6,11.9,12.9c0,9.3-7.4,17.7-15.8,17.7 c-4.9,0-8.3-1.9-10.1-5.7l-2.7,17.1H467l6.5-41.1H478.7z M487.4,35.9c-6.3,0-11.1,5.6-11.1,12.3c0,5.3,3.4,8.8,7.8,8.8 c5.8,0,11.5-5.2,11.5-12.3C495.5,39.6,492.4,35.9,487.4,35.9z"/>
    <use xlink:href="#svg-dev-e" x="163"/>
    <path id="svg-dev-r" d="M550,36.5c-4.8,0-8.1,3.7-9,9.8l-2.3,14.5h-5.2l4.5-28.7h5.1l-0.8,4.9c2.4-3.4,5.2-5.1,8.5-5.1 c0.8,0,1.6,0.1,2.3,0.2l-0.7,4.6C551.6,36.6,550.8,36.5,550,36.5z"/>
  </g>
</svg>
